<?xml version="1.0" encoding="UTF-8" standalone="no"?>
<!-- Created with Inkscape (http://www.inkscape.org/) -->

<svg
   version="1.1"
   id="icon-bug-tracker"
   viewBox="0 0 23.004974 23.149666"
   xmlns="http://www.w3.org/2000/svg"
   xmlns:svg="http://www.w3.org/2000/svg">
  <defs
     id="defs1">
    <linearGradient
       id="swatch33">
      <stop
         style="stop-color:#000000;stop-opacity:1;"
         offset="0"
         id="stop33" />
    </linearGradient>
  </defs>
  <g
     id="g1"
     transform="translate(-410.30423,-89.403235)">
    <circle
       style="fill:none;stroke-width:0.7;stroke-linecap:round;stroke-linejoin:round;stroke-dasharray:none;stroke-opacity:1"
       id="path52-9"
       cx="419.42062"
       cy="98.519623"
       r="8.7663889" />
    <path
       style="fill:none;fill-opacity:1;stroke-width:0.7;stroke-linecap:round;stroke-linejoin:round;stroke-dasharray:none;stroke-opacity:1"
       d="m 424.25001,106.13528 5.94824,5.71497 c 0,0 0.90973,0.67647 1.51622,0.16329 0.60648,-0.51318 1.98274,-1.11967 0.74644,-2.51926 -1.2363,-1.39958 -5.62167,-5.92491 -5.62167,-5.92491"
       id="path75" />
    <path
       style="fill:none;fill-opacity:1;stroke-width:0.6;stroke-linecap:round;stroke-linejoin:round;stroke-dasharray:none;stroke-opacity:1"
       d="m 428.09887,105.03894 -2.3793,2.23933"
       id="path76" />
    <g
       id="g24"
       transform="matrix(0.91079821,0,0,0.91079821,37.345489,8.8998575)">
      <path
         style="fill:none;fill-opacity:1;stroke-width:0.5;stroke-linecap:round;stroke-linejoin:round;stroke-dasharray:none;stroke-opacity:1"
         d="m 413.25655,99.370402 c 0,0 1.70459,-2.160748 2.66493,-1.224424"
         id="path77" />
      <path
         style="fill:none;fill-opacity:1;stroke-width:0.5;stroke-linecap:round;stroke-linejoin:round;stroke-dasharray:none;stroke-opacity:1"
         d="m 414.76296,95.65747 c 0,0 1.63257,-0.456158 2.59291,0.480166"
         id="path77-2" />
      <path
         style="fill:none;fill-opacity:1;stroke-width:0.5;stroke-linecap:round;stroke-linejoin:round;stroke-dasharray:none;stroke-opacity:1"
         d="m 418.38343,104.45852 c 0,0 2.11971,-1.75535 1.16087,-2.69321"
         id="path78" />
      <path
         style="fill:none;fill-opacity:1;stroke-width:0.5;stroke-linecap:round;stroke-linejoin:round;stroke-dasharray:none;stroke-opacity:1"
         d="m 422.09107,103.02845 c 0,0 0.5601,-1.59988 -0.31259,-2.61839"
         id="path79" />
      <path
         style="fill:none;fill-opacity:1;stroke-width:0.5;stroke-linecap:round;stroke-linejoin:round;stroke-dasharray:none;stroke-opacity:1"
         d="m 417.77427,92.72601 c 0,0 -0.42925,1.982986 0.74147,2.637449"
         id="path80" />
      <path
         style="fill:none;fill-opacity:1;stroke-width:0.5;stroke-linecap:round;stroke-linejoin:round;stroke-dasharray:none;stroke-opacity:1"
         d="m 425.08859,99.945713 c 0,0 -1.96685,0.526127 -2.60614,-0.65295"
         id="path81" />
      <rect
         style="fill:none;fill-opacity:1;stroke-width:0.5;stroke-linecap:round;stroke-linejoin:round;stroke-dasharray:none;stroke-opacity:1"
         id="rect82"
         width="6.914618"
         height="5.3437028"
         x="211.11456"
         y="370.76956"
         rx="2.5072794"
         ry="2.361011"
         transform="rotate(-46.878172)" />
      <rect
         style="fill:none;fill-opacity:1;stroke-width:0.5;stroke-linecap:round;stroke-linejoin:round;stroke-dasharray:none;stroke-opacity:1"
         id="rect82-8"
         width="1.4939786"
         height="2.8219149"
         x="218.0162"
         y="372.23157"
         rx="0.61403269"
         ry="1.1828799"
         transform="rotate(-46.878172)" />
      <path
         style="fill:none;fill-opacity:1;stroke-width:0.5;stroke-linecap:round;stroke-linejoin:round;stroke-dasharray:none;stroke-opacity:1"
         d="m 423.29203,93.056216 -1.05637,1.584549"
         id="path82" />
      <path
         style="fill:none;fill-opacity:1;stroke-width:0.5;stroke-linecap:round;stroke-linejoin:round;stroke-dasharray:none;stroke-opacity:1"
         d="m 424.84324,94.636433 -1.51963,1.147799"
         id="path82-2" />
      <path
         style="fill:none;fill-opacity:1;stroke-width:0.5;stroke-linecap:round;stroke-linejoin:round;stroke-dasharray:none;stroke-opacity:1"
         d="m 421.6492,96.339762 -4.96973,4.657608"
         id="path82-1" />
    </g>
  </g>
</svg>
