<?xml version="1.0" encoding="UTF-8" standalone="no"?>
<!-- Created with Inkscape (http://www.inkscape.org/) -->

<svg
   version="1.1"
   id="svg1"
   width="308.81293"
   height="23.149666"
   viewBox="0 0 308.81292 23.149666"
   sodipodi:docname="icons_no_back.eps"
   inkscape:version="1.4 (e7c3feb1, 2024-10-09)"
   inkscape:export-filename="icons_no_back.eps.png"
   inkscape:export-xdpi="6217.3564"
   inkscape:export-ydpi="6217.3564"
   inkscape:dataloss="true"
   xmlns:inkscape="http://www.inkscape.org/namespaces/inkscape"
   xmlns:sodipodi="http://sodipodi.sourceforge.net/DTD/sodipodi-0.dtd"
   xmlns="http://www.w3.org/2000/svg"
   xmlns:svg="http://www.w3.org/2000/svg">
  <defs
     id="defs1">
    <linearGradient
       id="swatch33"
       inkscape:swatch="solid">
      <stop
         style="stop-color:#000000;stop-opacity:1;"
         offset="0"
         id="stop33" />
    </linearGradient>
  </defs>
  <sodipodi:namedview
     id="namedview1"
     pagecolor="currentColor"
     bordercolor="#000000"
     borderopacity="0.25"
     inkscape:showpageshadow="2"
     inkscape:pageopacity="0.0"
     inkscape:pagecheckerboard="0"
     inkscape:deskcolor="#d1d1d1"
     showgrid="false"
     inkscape:zoom="2.8419527"
     inkscape:cx="287.30246"
     inkscape:cy="126.49753"
     inkscape:window-width="2560"
     inkscape:window-height="1314"
     inkscape:window-x="1800"
     inkscape:window-y="25"
     inkscape:window-maximized="0"
     inkscape:current-layer="g1"
     showguides="false">
    <inkscape:page
       x="0"
       y="0"
       width="308.81293"
       height="23.149666"
       id="page2"
       margin="0"
       bleed="0" />
  </sodipodi:namedview>
  <g
     inkscape:groupmode="layer"
     inkscape:label="Image"
     id="g1"
     transform="translate(-164.65251,-89.403235)">
    <g
       id="g54"
       transform="translate(5.0247703)"
       inkscape:export-filename="icons.pdf"
       inkscape:export-xdpi="621.73566"
       inkscape:export-ydpi="621.73566">
      <path
         style="stroke:currentColor;stroke-width:0.664;stroke-linecap:round;stroke-dasharray:none;stroke-opacity:1"
         d="m 201.81475,96.928602 18.08822,0.03196 v 0"
         id="path8" />
      <path
         style="stroke:currentColor;stroke-width:0.664;stroke-linecap:round;stroke-dasharray:none;stroke-opacity:1"
         d="m 207.43935,101.46664 h 1.75769"
         id="path9" />
      <path
         style="stroke:currentColor;stroke-width:0.664;stroke-linecap:round;stroke-dasharray:none;stroke-opacity:1"
         d="m 210.41145,101.4986 h 4.21845"
         id="path10" />
      <path
         style="stroke:currentColor;stroke-width:0.664;stroke-linecap:round;stroke-dasharray:none;stroke-opacity:1"
         d="m 215.95427,101.46664 h 1.44188"
         id="path11" />
      <path
         style="stroke:currentColor;stroke-width:0.664;stroke-linecap:round;stroke-dasharray:none;stroke-opacity:1"
         d="m 218.68857,101.4986 h 0.73503"
         id="path12" />
      <path
         style="stroke:currentColor;stroke-width:0.664;stroke-linecap:round;stroke-dasharray:none;stroke-opacity:1"
         d="m 216.11841,103.33495 h 2.8123"
         id="path13" />
      <path
         style="stroke:currentColor;stroke-width:0.664;stroke-linecap:round;stroke-dasharray:none;stroke-opacity:1"
         d="m 213.70312,103.35216 h 1.24637"
         id="path14" />
      <path
         style="stroke:currentColor;stroke-width:0.664;stroke-linecap:round;stroke-dasharray:none;stroke-opacity:1"
         d="m 207.59914,103.3202 h 0.41546"
         id="path15" />
      <path
         style="stroke:currentColor;stroke-width:0.664;stroke-linecap:round;stroke-dasharray:none;stroke-opacity:1"
         d="m 209.16508,103.3202 h 3.32363"
         id="path16" />
      <path
         style="stroke:currentColor;stroke-width:0.664;stroke-linecap:round;stroke-dasharray:none;stroke-opacity:1"
         d="m 207.27956,105.23768 h 4.47412"
         id="path17" />
      <path
         style="stroke:currentColor;stroke-width:0.664;stroke-linecap:round;stroke-linejoin:round;stroke-dasharray:none;stroke-opacity:1"
         d="m 202.77349,105.07789 2.23706,-1.91748 -2.07727,-1.69377 v 0"
         id="path18" />
      <path
         style="stroke:currentColor;stroke-width:0.664;stroke-linecap:round;stroke-linejoin:round;stroke-dasharray:none;stroke-opacity:1"
         d="m 201.82177,95.028789 h 0.44305"
         id="path19" />
      <path
         style="stroke:currentColor;stroke-width:0.664;stroke-linecap:round;stroke-linejoin:round;stroke-dasharray:none;stroke-opacity:1"
         d="m 203.32977,95.029756 h 0.44305"
         id="path19-2" />
      <path
         style="stroke:currentColor;stroke-width:0.664;stroke-linecap:round;stroke-linejoin:round;stroke-dasharray:none;stroke-opacity:1"
         d="m 204.86026,95.035586 h 0.44305"
         id="path19-2-3" />
      <rect
         style="stroke:currentColor;stroke-width:0.850026;stroke-linecap:round;stroke-linejoin:round;stroke-dasharray:none;stroke-opacity:1"
         id="rect19"
         width="21.871552"
         height="16.598892"
         x="199.8748"
         y="92.791847"
         rx="2.2014065"
         ry="2.1280484" />
    </g>
    <g
       id="g53"
       transform="translate(3.2905585)">
      <path
         style="stroke:currentColor;stroke-width:0.5;stroke-linecap:round;stroke-linejoin:round;stroke-dasharray:none;stroke-opacity:1"
         d="m 248.57221,97.312573 c 0,0 0.70859,-2.881585 4.39324,-3.16502"
         id="path47" />
      <path
         style="stroke:currentColor;stroke-width:0.85;stroke-linecap:round;stroke-linejoin:round;stroke-dasharray:none;stroke-opacity:1"
         d="m 248.3017,106.65623 c 0,0 -7.1751,1.59705 -5.82333,-4.85594 0.3022,-1.39578 1.95234,-2.594921 3.35398,-2.787108 0.0945,0 -0.0945,-6.566237 6.0466,-7.227585 0.56687,0 3.99979,-1.064495 6.64518,3.706655 0,0 5.57159,-1.463798 6.62901,5.221538 -0.0472,1.09358 -0.41284,5.98706 -5.60914,6.13785"
         id="path48"
         sodipodi:nodetypes="ccccccc" />
      <path
         style="stroke:currentColor;stroke-width:0.664;stroke-linecap:round;stroke-linejoin:round;stroke-dasharray:none;stroke-opacity:1"
         d="m 249.37528,103.17022 4.29876,-1.55889 4.62943,1.55889 -0.89754,5.29078 -3.68465,2.59816 -3.63741,-2.73987 z"
         id="path49" />
      <path
         style="stroke:currentColor;stroke-width:0.5;stroke-linecap:round;stroke-linejoin:round;stroke-dasharray:none;stroke-opacity:1"
         d="m 252.02067,105.95733 1.41717,1.18098 2.45644,-2.64539"
         id="path50" />
    </g>
    <g
       id="g52"
       transform="translate(3.1095078)">
      <path
         style="stroke:currentColor;stroke-width:0.85;stroke-linecap:round;stroke-linejoin:round;stroke-dasharray:none;stroke-opacity:1"
         d="m 289.55003,94.372292 2.84127,-1.376241 0.75471,-1.908979 3.55159,0.08879 0.79911,1.908979 2.48611,1.198661 1.90898,-0.754712 2.48611,2.796876 -1.19866,1.820189 0.57713,2.796875 2.04217,1.37624 -1.15427,3.28522 -1.99777,0.0888 -1.90898,2.44171 0.13319,2.21975 -2.93006,1.42063 -1.50943,-1.59821 -3.01885,-0.0888 -1.37624,1.55382 -3.15203,-1.59822 -0.0444,-2.26414 -1.86458,-1.99776 -1.95338,-0.31077 -0.62152,-3.15203 1.82019,-1.55382 0.53273,-2.974454 -0.97668,-1.331846 2.13095,-2.974455 z"
         id="path51" />
      <circle
         style="stroke:currentColor;stroke-width:0.5;stroke-linecap:round;stroke-linejoin:round;stroke-dasharray:none;stroke-opacity:1"
         id="path52"
         cx="295.0994"
         cy="101.43108"
         r="6.5704389" />
      <text
         xml:space="preserve"
         style="font-size:6.07724px;text-align:start;writing-mode:lr-tb;direction:ltr;text-anchor:start;stroke:currentColor;stroke-width:0.336274;stroke-linecap:round;stroke-linejoin:round;stroke-dasharray:none;stroke-opacity:1"
         x="290.88196"
         y="103.57206"
         id="text52"><tspan
           sodipodi:role="line"
           id="tspan52"
           x="290.88196"
           y="103.57206"
           style="font-style:normal;font-variant:normal;font-weight:normal;font-stretch:normal;font-family:'.SF Soft Numeric';-inkscape-font-specification:'.SF Soft Numeric';fill:currentColor;fill-opacity:1;stroke:none;stroke-width:0.336274">API</tspan></text>
    </g>
    <g
       id="g62"
       transform="translate(2.2538544)">
      <rect
         style="fill-opacity:1;stroke:currentColor;stroke-width:0.85;stroke-linecap:round;stroke-linejoin:round;stroke-dasharray:none;stroke-opacity:1"
         id="rect55"
         width="21.354675"
         height="22.182152"
         x="326.46448"
         y="89.850761"
         rx="2.2"
         ry="2.2" />
      <path
         style="stroke:currentColor;stroke-width:0.664;stroke-linecap:round;stroke-linejoin:round;stroke-dasharray:none;stroke-opacity:1"
         d="m 328.94923,92.268311 h 0.44305"
         id="path19-5" />
      <path
         style="stroke:currentColor;stroke-width:0.664;stroke-linecap:round;stroke-linejoin:round;stroke-dasharray:none;stroke-opacity:1"
         d="m 330.43887,92.268311 h 0.44305"
         id="path55" />
      <path
         style="stroke:currentColor;stroke-width:0.664;stroke-linecap:round;stroke-linejoin:round;stroke-dasharray:none;stroke-opacity:1"
         d="m 331.96275,92.268311 h 0.44305"
         id="path56" />
      <path
         style="stroke:currentColor;stroke-width:0.5;stroke-linecap:round;stroke-linejoin:round;stroke-dasharray:none;stroke-opacity:1"
         d="m 337.94608,109.40785 h 1.00427"
         id="path19-5-5" />
      <path
         style="stroke:currentColor;stroke-width:0.5;stroke-linecap:round;stroke-linejoin:round;stroke-dasharray:none;stroke-opacity:1"
         d="m 340.80789,109.40785 h 1.00427"
         id="path57" />
      <path
         style="stroke:currentColor;stroke-width:0.5;stroke-linecap:round;stroke-linejoin:round;stroke-dasharray:none;stroke-opacity:1"
         d="m 343.89816,109.40785 h 1.00427"
         id="path58" />
      <path
         style="stroke:currentColor;stroke-width:0.5;stroke-linecap:round;stroke-linejoin:round;stroke-dasharray:none;stroke-opacity:1"
         d="m 329.09612,109.40785 h 6.87218"
         id="path59"
         sodipodi:nodetypes="cc" />
      <rect
         style="fill-opacity:1;stroke:currentColor;stroke-width:0.5;stroke-linecap:round;stroke-linejoin:round;stroke-dasharray:none;stroke-opacity:1"
         id="rect59-7"
         width="4.358139"
         height="2.5451705"
         x="328.75082"
         y="96.205032"
         rx="0.2"
         ry="0.30000001" />
      <rect
         style="fill-opacity:1;stroke:currentColor;stroke-width:0.5;stroke-linecap:round;stroke-linejoin:round;stroke-dasharray:none;stroke-opacity:1"
         id="rect60"
         width="4.358139"
         height="2.5451705"
         x="334.82666"
         y="96.205032"
         rx="0.2"
         ry="0.30000001" />
      <rect
         style="fill-opacity:1;stroke:currentColor;stroke-width:0.5;stroke-linecap:round;stroke-linejoin:round;stroke-dasharray:none;stroke-opacity:1"
         id="rect61"
         width="4.358139"
         height="2.5451705"
         x="340.87799"
         y="96.205032"
         rx="0.2"
         ry="0.30000001" />
      <rect
         style="fill-opacity:1;stroke:currentColor;stroke-width:0.5;stroke-linecap:round;stroke-linejoin:round;stroke-dasharray:none;stroke-opacity:1"
         id="rect62"
         width="16.338295"
         height="7.4940386"
         x="328.75082"
         y="100.05143"
         ry="0.30000001"
         rx="0.2" />
    </g>
    <g
       id="g68"
       transform="translate(0.3593677)">
      <path
         style="stroke:currentColor;stroke-width:0.85;stroke-linecap:round;stroke-linejoin:round;stroke-dasharray:none;stroke-opacity:1"
         d="m 385.2346,104.64513 c 5.32168,-0.002 6.01224,-2.94107 5.93404,-5.341952 0.087,-6.254955 -6.2223,-5.478426 -6.2223,-5.478426 -2.64539,-4.77115 -5.95213,-3.73189 -6.519,-3.73189 -6.1411,0.661348 -5.9521,7.227585 -6.0466,7.227585 -1.27546,0.141717 -3.32089,1.701047 -3.35398,2.787103 -0.77215,4.87262 5.80953,4.56849 5.80953,4.56849 z"
         id="path63"
         sodipodi:nodetypes="cccccccc" />
      <rect
         style="fill-opacity:1;stroke:currentColor;stroke-width:0.6;stroke-linecap:round;stroke-linejoin:round;stroke-dasharray:none;stroke-opacity:1"
         id="rect61-1"
         width="4.6300178"
         height="4.5161839"
         x="368.9646"
         y="107.50785"
         rx="0.2"
         ry="0.30000001" />
      <rect
         style="fill-opacity:1;stroke:currentColor;stroke-width:0.6;stroke-linecap:round;stroke-linejoin:round;stroke-dasharray:none;stroke-opacity:1"
         id="rect65"
         width="4.6300178"
         height="4.5161839"
         x="377.80017"
         y="107.50785"
         rx="0.2"
         ry="0.30000001" />
      <rect
         style="fill-opacity:1;stroke:currentColor;stroke-width:0.6;stroke-linecap:round;stroke-linejoin:round;stroke-dasharray:none;stroke-opacity:1"
         id="rect66"
         width="4.6300178"
         height="4.5161839"
         x="386.97556"
         y="107.50785"
         rx="0.2"
         ry="0.30000001" />
      <circle
         style="fill-opacity:1;stroke:currentColor;stroke-width:0.5;stroke-linecap:round;stroke-linejoin:round;stroke-dasharray:none;stroke-opacity:1"
         id="path66"
         cx="380.19907"
         cy="98.708176"
         r="0.9817977" />
      <circle
         style="fill-opacity:1;stroke:currentColor;stroke-width:0.5;stroke-linecap:round;stroke-linejoin:round;stroke-dasharray:none;stroke-opacity:1"
         id="path66-4"
         cx="380.19907"
         cy="98.708176"
         r="2.4947016" />
      <path
         style="fill-opacity:1;stroke:currentColor;stroke-width:0.6;stroke-linecap:round;stroke-linejoin:round;stroke-dasharray:none;stroke-opacity:1"
         d="m 373.72718,109.86108 h 4.02554"
         id="path67"
         sodipodi:nodetypes="cc" />
      <path
         style="fill-opacity:1;stroke:currentColor;stroke-width:0.6;stroke-linecap:round;stroke-linejoin:round;stroke-dasharray:none;stroke-opacity:1"
         d="m 380.1396,101.29197 0.0285,6.01814"
         id="path67-1"
         sodipodi:nodetypes="cc" />
      <path
         style="fill-opacity:1;stroke:currentColor;stroke-width:0.6;stroke-linecap:round;stroke-linejoin:round;stroke-dasharray:none;stroke-opacity:1"
         d="m 382.70415,109.86108 4.16075,0.0285 0.0855,0.14249"
         id="path68"
         sodipodi:nodetypes="ccc" />
    </g>
    <g
       id="g82"
       transform="translate(-2.0872411)">
      <circle
         style="stroke:currentColor;stroke-width:0.7;stroke-linecap:round;stroke-linejoin:round;stroke-dasharray:none;stroke-opacity:1"
         id="path52-9"
         cx="421.50787"
         cy="98.519623"
         r="8.7663889" />
      <path
         style="fill-opacity:1;stroke:currentColor;stroke-width:0.7;stroke-linecap:round;stroke-linejoin:round;stroke-dasharray:none;stroke-opacity:1"
         d="m 426.33725,106.13528 5.94824,5.71497 c 0,0 0.90973,0.67647 1.51622,0.16329 0.60648,-0.51318 1.98274,-1.11967 0.74644,-2.51926 -1.2363,-1.39958 -5.62167,-5.92491 -5.62167,-5.92491"
         id="path75" />
      <path
         style="fill-opacity:1;stroke:currentColor;stroke-width:0.6;stroke-linecap:round;stroke-linejoin:round;stroke-dasharray:none;stroke-opacity:1"
         d="m 430.18611,105.03894 -2.3793,2.23933"
         id="path76"
         sodipodi:nodetypes="cc" />
      <path
         style="fill-opacity:1;stroke:currentColor;stroke-width:0.5;stroke-linecap:round;stroke-linejoin:round;stroke-dasharray:none;stroke-opacity:1"
         d="m 415.34379,99.370402 c 0,0 1.70459,-2.160748 2.66493,-1.224424"
         id="path77"
         sodipodi:nodetypes="cc" />
      <path
         style="fill-opacity:1;stroke:currentColor;stroke-width:0.5;stroke-linecap:round;stroke-linejoin:round;stroke-dasharray:none;stroke-opacity:1"
         d="m 416.8502,95.65747 c 0,0 1.63257,-0.456158 2.59291,0.480166"
         id="path77-2"
         sodipodi:nodetypes="cc" />
      <path
         style="fill-opacity:1;stroke:currentColor;stroke-width:0.5;stroke-linecap:round;stroke-linejoin:round;stroke-dasharray:none;stroke-opacity:1"
         d="m 420.47067,104.45852 c 0,0 2.11971,-1.75535 1.16087,-2.69321"
         id="path78"
         sodipodi:nodetypes="cc" />
      <path
         style="fill-opacity:1;stroke:currentColor;stroke-width:0.5;stroke-linecap:round;stroke-linejoin:round;stroke-dasharray:none;stroke-opacity:1"
         d="m 424.17831,103.02845 c 0,0 0.5601,-1.59988 -0.31259,-2.61839"
         id="path79"
         sodipodi:nodetypes="cc" />
      <path
         style="fill-opacity:1;stroke:currentColor;stroke-width:0.5;stroke-linecap:round;stroke-linejoin:round;stroke-dasharray:none;stroke-opacity:1"
         d="m 419.86151,92.72601 c 0,0 -0.42925,1.982986 0.74147,2.637449"
         id="path80"
         sodipodi:nodetypes="cc" />
      <path
         style="fill-opacity:1;stroke:currentColor;stroke-width:0.5;stroke-linecap:round;stroke-linejoin:round;stroke-dasharray:none;stroke-opacity:1"
         d="m 427.17583,99.945713 c 0,0 -1.96685,0.526127 -2.60614,-0.65295"
         id="path81"
         sodipodi:nodetypes="cc" />
      <rect
         style="fill-opacity:1;stroke:currentColor;stroke-width:0.5;stroke-linecap:round;stroke-linejoin:round;stroke-dasharray:none;stroke-opacity:1"
         id="rect82"
         width="6.914618"
         height="5.3437028"
         x="212.54131"
         y="372.29303"
         rx="2.5072794"
         ry="2.361011"
         transform="rotate(-46.878172)" />
      <rect
         style="fill-opacity:1;stroke:currentColor;stroke-width:0.5;stroke-linecap:round;stroke-linejoin:round;stroke-dasharray:none;stroke-opacity:1"
         id="rect82-8"
         width="1.4939786"
         height="2.8219149"
         x="219.44295"
         y="373.75504"
         rx="0.61403269"
         ry="1.1828799"
         transform="rotate(-46.878172)" />
      <path
         style="fill-opacity:1;stroke:currentColor;stroke-width:0.5;stroke-linecap:round;stroke-linejoin:round;stroke-dasharray:none;stroke-opacity:1"
         d="m 425.37927,93.056216 -1.05637,1.584549"
         id="path82" />
      <path
         style="fill-opacity:1;stroke:currentColor;stroke-width:0.5;stroke-linecap:round;stroke-linejoin:round;stroke-dasharray:none;stroke-opacity:1"
         d="m 426.93048,94.636433 -1.51963,1.147799"
         id="path82-2" />
      <path
         style="fill-opacity:1;stroke:currentColor;stroke-width:0.5;stroke-linecap:round;stroke-linejoin:round;stroke-dasharray:none;stroke-opacity:1"
         d="m 423.73644,96.339762 -4.96973,4.657608"
         id="path82-1"
         sodipodi:nodetypes="cc" />
    </g>
    <g
       id="g94">
      <path
         style="stroke:currentColor;stroke-width:0.664;stroke-linecap:round;stroke-dasharray:none;stroke-opacity:1"
         d="m 459.79981,97.969327 h 4.91734"
         id="path13-1"
         sodipodi:nodetypes="cc" />
      <path
         id="rect19-0"
         style="stroke:currentColor;stroke-width:0.664;stroke-linecap:round;stroke-linejoin:round;stroke-dasharray:none;stroke-opacity:1"
         d="m 464.81076,93.221951 0.62702,-9.02e-4 c 1.17894,-0.0017 2.12946,0.978767 2.13121,2.198344 l 0.0204,14.205127 c 0.002,1.21958 -0.94595,2.20277 -2.12489,2.20446 l -10.53435,0.0152 c -1.17893,0.002 -2.12946,-0.97877 -2.13121,-2.19835 v 0 l -0.0204,-14.205123 c -0.002,-1.219578 0.94594,-2.202768 2.12488,-2.204463 l 0.88682,-0.0013" />
      <path
         id="rect19-0-1"
         style="stroke:currentColor;stroke-width:0.664;stroke-linecap:round;stroke-linejoin:round;stroke-dasharray:none;stroke-opacity:1"
         d="m 460.07003,90.146614 c -1.13103,2.3e-5 -2.04954,0.807232 -2.05542,1.806336 l -1.29855,0.0019 c -0.45932,6.29e-4 -0.8299,0.369111 -0.82921,0.824955 l 0.002,1.163877 c 6.9e-4,0.455844 0.37184,0.821859 0.83116,0.82123 l 7.14992,-0.0093 c 0.45931,-6.29e-4 0.82793,-0.36911 0.82724,-0.824955 l -0.002,-1.163876 c -6.9e-4,-0.455845 -0.36989,-0.82186 -0.8292,-0.821231 l -1.74054,0.0019 c -0.01,-0.996919 -0.92684,-1.800735 -2.05541,-1.800749 z"
         sodipodi:nodetypes="scsccccccccs" />
      <path
         style="stroke:currentColor;stroke-width:0.5;stroke-linecap:round;stroke-dasharray:none;stroke-opacity:1"
         d="m 459.79981,97.969327 h 4.91734"
         id="path83"
         sodipodi:nodetypes="cc" />
      <path
         style="fill-opacity:1;stroke:currentColor;stroke-width:0.5;stroke-linecap:round;stroke-linejoin:round;stroke-dasharray:none;stroke-opacity:1"
         d="m 455.6232,98.176508 0.81862,0.847861 1.60802,-1.783432"
         id="path84" />
      <path
         style="stroke:currentColor;stroke-width:0.5;stroke-linecap:round;stroke-dasharray:none;stroke-opacity:1"
         d="m 459.91676,102.85184 h 4.91734"
         id="path85"
         sodipodi:nodetypes="cc" />
      <path
         style="fill-opacity:1;stroke:currentColor;stroke-width:0.5;stroke-linecap:round;stroke-linejoin:round;stroke-dasharray:none;stroke-opacity:1"
         d="m 455.74015,103.05902 0.81862,0.84786 1.60802,-1.78343"
         id="path86" />
      <path
         style="stroke:currentColor;stroke-width:0.5;stroke-linecap:round;stroke-dasharray:none;stroke-opacity:1"
         d="m 459.82905,107.70512 h 4.91734"
         id="path87"
         sodipodi:nodetypes="cc" />
      <path
         style="fill-opacity:1;stroke:currentColor;stroke-width:0.5;stroke-linecap:round;stroke-linejoin:round;stroke-dasharray:none;stroke-opacity:1"
         d="m 455.65244,107.9123 0.81862,0.84786 1.60802,-1.78343"
         id="path88" />
      <circle
         style="fill-opacity:1;stroke:currentColor;stroke-width:0.5;stroke-linecap:round;stroke-linejoin:round;stroke-dasharray:none;stroke-opacity:1"
         id="path89"
         cx="460.09412"
         cy="92.221947"
         r="0.83362114" />
      <path
         id="rect90"
         style="fill-opacity:1;stroke:currentColor;stroke-width:0.461972;stroke-linecap:round;stroke-linejoin:round;stroke-dasharray:none;stroke-opacity:1"
         d="m 473.07569,107.22604 c 0.10226,-0.22674 0.15877,-0.47641 0.15877,-0.73891 V 95.61912 c 0,-1.046275 -0.89766,-1.888583 -2.0127,-1.888583 v 0 c -1.11503,0 -2.01269,0.842308 -2.01269,1.888583 v 10.86801 c 0,0.2625 0.0565,0.51217 0.15877,0.73891 l 1.62686,3.76167 z" />
      <path
         style="fill-opacity:1;stroke:currentColor;stroke-width:0.497983;stroke-linecap:round;stroke-linejoin:round;stroke-dasharray:none;stroke-opacity:1"
         d="m 469.55182,107.11055 h 3.41613 v -0.0187"
         id="path91" />
      <path
         style="fill-opacity:1;stroke:currentColor;stroke-width:0.5;stroke-linecap:round;stroke-linejoin:round;stroke-dasharray:none;stroke-opacity:1"
         d="m 471.23112,107.12094 v -2.25438 l -0.0187,-7.992812"
         id="path91-9"
         sodipodi:nodetypes="ccc" />
      <path
         style="fill:currentColor;fill-opacity:1;stroke:none;stroke-width:0.5;stroke-linecap:round;stroke-linejoin:round;stroke-dasharray:none;stroke-opacity:1"
         d="m 470.20902,109.22184 h 1.7197 l -0.91956,1.81524 z"
         id="path93" />
      <rect
         style="fill:currentColor;fill-opacity:1;stroke:none;stroke-width:0.428908;stroke-linecap:round;stroke-linejoin:round;stroke-dasharray:none;stroke-opacity:1"
         id="rect94"
         width="4.1616039"
         height="1.4363056"
         x="469.1449"
         y="95.456703" />
    </g>
  </g>
  <g
     id="g55"
     transform="translate(-158.65251,-89.403235)">
    <path
       style="stroke:currentColor;stroke-width:0.5;stroke-linecap:round;stroke-dasharray:none;stroke-opacity:1"
       d="m 164.30446,110.76479 -0.20102,-8.74458 c 0,0 0,-1.30667 -0.63658,-1.97675 -0.63658,-0.670084 -0.56957,-0.770597 -0.56957,-0.770597"
       id="path3" />
    <path
       style="stroke:currentColor;stroke-width:0.5;stroke-linecap:round;stroke-dasharray:none;stroke-opacity:1"
       d="m 166.04668,107.5819 -0.067,-10.051254"
       id="path4" />
    <path
       style="stroke:currentColor;stroke-width:0.5;stroke-linecap:round;stroke-dasharray:none;stroke-opacity:1"
       d="m 168.15744,108.386 -0.0335,-9.280658 c 0,0 0.73709,-1.641704 1.30666,-2.144267 0.56957,-0.502562 0.60308,-0.502562 0.60308,-0.502562"
       id="path5" />
    <path
       style="display:inline;stroke:currentColor;stroke-width:0.5;stroke-linecap:round;stroke-dasharray:none;stroke-opacity:1"
       d="m 170.2682,106.84481 -0.10051,-4.7576 c 0,0 0.90461,-1.07213 1.23966,-1.34016 0.33504,-0.26804 0.33504,-0.26804 0.33504,-0.26804"
       id="path6" />
    <circle
       style="stroke:currentColor;stroke-width:0.5;stroke-linecap:round;stroke-dasharray:none;stroke-opacity:1"
       id="path7"
       cx="162.76328"
       cy="-98.100212"
       r="1.2061502"
       transform="scale(1,-1)" />
    <circle
       style="stroke:currentColor;stroke-width:0.5;stroke-linecap:round;stroke-dasharray:none;stroke-opacity:1"
       id="path7-8"
       cx="166.03334"
       cy="-96.046341"
       r="1.2061502"
       transform="scale(1,-1)" />
    <circle
       style="stroke:currentColor;stroke-width:0.5;stroke-linecap:round;stroke-dasharray:none;stroke-opacity:1"
       id="path7-8-6"
       cx="171.13896"
       cy="-95.252487"
       r="1.2061502"
       transform="scale(1,-1)" />
    <circle
       style="stroke:currentColor;stroke-width:0.5;stroke-linecap:round;stroke-dasharray:none;stroke-opacity:1"
       id="path7-8-6-1"
       cx="172.8942"
       cy="-99.74205"
       r="1.2061502"
       transform="scale(1,-1)" />
    <path
       style="stroke:currentColor;stroke-width:0.7;stroke-linecap:round;stroke-dasharray:none;stroke-opacity:1"
       d="m 160.80592,110.15651 c 0,0 0.89172,-1.90232 0.71337,-3.6263 -0.17834,-1.72399 -0.23779,-2.19957 -0.89171,-3.21018 -0.65393,-1.01061 -2.6157,-3.329065 -1.01061,-7.490402 0.95116,-1.723982 3.15073,-6.004213 8.79825,-5.706975 5.2314,0.356686 9.0579,4.839399 8.02025,8.997375 -0.37456,1.500902 0.67976,2.512162 0.67976,2.512162 0,0 1.36671,1.25703 1.14958,1.78435 -0.21713,0.52732 -0.4963,0.80649 -0.74445,0.80649 -0.24815,0 -0.83751,-0.062 -0.86853,0.55834 -0.031,0.62037 0.27917,1.39584 -0.093,1.9852 -0.37223,0.58936 -0.83751,0.93056 -0.43426,1.67501 0.36549,0.67473 -0.71344,2.66762 -2.48151,2.10928 -0.71343,-0.62038 -2.10927,-1.76808 -2.41945,-0.6514 0,0.62037 -0.031,1.76807 -0.031,1.76807"
       id="path2"
       sodipodi:nodetypes="cssccscssscsccc" />
  </g>
</svg>
